<?xml version="1.0" standalone="no"?>
<!DOCTYPE svg PUBLIC "-//W3C//DTD SVG 20010904//EN"
 "http://www.w3.org/TR/2001/REC-SVG-20010904/DTD/svg10.dtd">
<svg version="1.0" xmlns="http://www.w3.org/2000/svg"
 width="900.000000pt" height="705.000000pt" viewBox="0 0 900.000000 705.000000"
 preserveAspectRatio="xMidYMid meet">
<metadata>
Created by potrace 1.10, written by Peter Selinger 2001-2011
</metadata>
<g transform="translate(0.000000,705.000000) scale(0.100000,-0.100000)"
fill="#000000" stroke="none">
<path d="M4350 5870 c-19 -16 -38 -30 -42 -30 -7 0 -176 -115 -283 -192 -32
-24 -67 -47 -77 -53 -19 -11 -201 -135 -323 -220 -120 -84 -215 -149 -233
-160 -9 -5 -42 -28 -72 -50 -30 -22 -63 -44 -72 -50 -9 -5 -52 -34 -95 -64
-43 -30 -125 -87 -183 -126 -233 -158 -354 -241 -527 -362 -38 -26 -115 -79
-173 -118 -58 -39 -140 -96 -183 -126 -43 -30 -86 -58 -95 -64 -9 -5 -42 -28
-72 -50 -30 -22 -63 -44 -72 -50 -9 -5 -75 -50 -148 -100 -72 -49 -139 -94
-148 -100 -9 -5 -41 -28 -72 -51 -30 -22 -75 -54 -100 -70 -42 -28 -200 -136
-330 -226 -30 -20 -107 -73 -170 -116 -63 -43 -116 -84 -117 -92 -2 -9 48 -52
122 -105 68 -49 175 -127 236 -172 62 -46 121 -83 132 -83 11 0 53 23 94 50
40 27 76 50 79 50 4 0 23 14 44 30 21 17 40 30 43 30 3 0 35 20 71 45 37 25
69 45 72 45 3 0 23 14 44 30 21 17 41 30 44 30 3 0 35 20 72 45 36 25 67 45
68 45 2 0 74 47 161 105 86 58 159 105 160 105 2 0 53 34 115 75 62 41 114 75
117 75 3 0 22 14 43 30 21 17 45 30 54 30 9 0 61 -33 115 -72 55 -40 147 -107
205 -148 151 -108 305 -218 377 -270 101 -74 214 -150 221 -150 3 0 50 29 103
65 54 36 99 65 101 65 1 0 42 27 91 60 48 33 95 60 105 60 9 0 52 -26 95 -58
43 -31 123 -88 178 -125 55 -37 135 -93 179 -123 43 -30 84 -53 91 -51 6 3
130 84 274 181 144 97 269 176 278 176 8 0 32 -13 52 -28 20 -16 56 -42 81
-58 25 -17 82 -56 127 -87 46 -31 88 -57 94 -57 6 0 25 10 42 23 17 12 39 27
49 32 19 11 228 155 353 242 90 64 188 131 255 177 25 17 80 56 123 88 44 32
90 61 103 64 24 6 32 1 182 -98 24 -15 45 -28 47 -28 3 0 34 -20 71 -45 36
-25 67 -45 69 -45 2 0 32 -19 67 -42 70 -47 96 -64 118 -75 8 -4 43 -26 78
-50 35 -24 65 -43 67 -43 2 0 33 -20 69 -45 37 -25 68 -45 71 -45 3 0 33 -19
68 -43 34 -24 69 -47 77 -51 20 -9 43 -24 115 -71 33 -22 67 -44 76 -50 105
-65 142 -85 155 -85 14 0 467 334 471 348 3 8 -47 45 -199 148 -250 170 -326
222 -390 267 -218 151 -433 298 -456 312 -9 6 -41 28 -72 51 -30 22 -95 67
-145 101 -118 79 -310 210 -410 280 -134 94 -315 217 -333 228 -9 6 -33 22
-52 36 -34 26 -148 104 -375 257 -60 41 -126 86 -145 101 -19 14 -43 31 -52
36 -9 6 -51 34 -92 63 -42 28 -110 76 -152 105 -41 28 -83 57 -92 62 -9 6 -41
28 -72 50 -61 45 -159 112 -195 135 -13 8 -57 38 -97 65 -40 28 -116 80 -168
115 -52 35 -101 70 -108 77 -20 19 -33 16 -72 -17z m117 -157 c30 -21 65 -45
78 -53 41 -26 271 -184 473 -324 41 -28 84 -58 97 -66 27 -17 222 -150 338
-231 43 -30 86 -58 95 -64 9 -5 42 -29 74 -52 31 -24 59 -43 63 -43 13 0 65
-44 65 -56 0 -18 -35 -42 -545 -382 -258 -173 -477 -320 -485 -327 -23 -21
-63 -26 -87 -13 -12 7 -61 40 -108 73 -48 33 -94 65 -103 70 -9 6 -41 28 -72
51 -30 22 -95 67 -145 100 -87 58 -209 142 -307 211 -165 115 -182 125 -198
114 -8 -6 -25 -15 -37 -20 -18 -8 -42 -49 -31 -54 16 -9 55 -35 168 -112 72
-49 139 -94 147 -100 9 -5 55 -37 102 -69 47 -33 119 -83 159 -110 40 -28 84
-58 97 -66 69 -44 231 -156 237 -164 12 -18 -5 -37 -71 -77 -36 -22 -86 -54
-111 -72 -40 -28 -152 -103 -198 -132 -9 -5 -63 -42 -122 -81 -59 -39 -111
-73 -116 -75 -10 -4 -169 -107 -292 -190 -41 -27 -77 -49 -82 -49 -4 0 -13 -7
-20 -15 -25 -31 -55 -19 -160 62 -30 24 -71 54 -90 69 -19 14 -147 108 -285
210 -324 240 -303 225 -352 258 -24 16 -43 33 -43 37 0 18 -44 8 -79 -18 -20
-16 -44 -32 -53 -38 -9 -5 -49 -32 -90 -60 -40 -27 -78 -52 -83 -55 -6 -3
-104 -68 -218 -145 -115 -77 -219 -147 -232 -155 -22 -14 -72 -48 -191 -128
-30 -20 -63 -42 -72 -47 -9 -6 -45 -29 -80 -53 -35 -23 -69 -42 -75 -42 -7 0
-35 22 -63 48 -27 26 -94 83 -147 127 -53 44 -97 87 -97 96 0 10 48 49 118 96
64 44 146 100 182 124 171 119 213 148 323 223 65 45 129 88 142 96 13 8 56
38 97 66 131 91 211 146 318 219 58 39 140 96 183 126 43 30 86 59 95 64 9 6
19 12 22 15 7 7 85 61 115 80 38 24 262 177 473 324 41 28 84 58 97 66 13 8
63 42 110 75 48 33 97 67 110 75 13 8 63 42 110 75 48 33 94 65 103 70 10 6
19 12 22 15 6 6 83 60 115 80 21 14 195 132 325 221 30 21 87 60 125 88 39 27
78 50 88 50 10 1 43 -16 74 -36z m1402 -950 c20 -16 44 -32 53 -38 15 -9 87
-58 376 -256 68 -46 134 -91 147 -99 13 -8 79 -53 147 -99 68 -47 170 -117
228 -156 58 -40 160 -110 228 -156 68 -46 134 -91 147 -99 13 -8 83 -55 155
-105 73 -49 139 -94 148 -100 9 -5 42 -29 74 -52 31 -24 60 -43 65 -43 13 -1
53 -37 53 -49 0 -5 -37 -38 -82 -72 -46 -35 -85 -66 -88 -69 -3 -3 -23 -19
-45 -36 -22 -16 -51 -39 -65 -52 -40 -35 -58 -36 -101 -5 -22 15 -51 35 -64
43 -13 8 -56 38 -97 66 -135 94 -212 147 -318 219 -58 39 -141 97 -185 128
-44 31 -129 90 -190 131 -60 41 -141 97 -180 124 -284 198 -365 252 -376 252
-6 0 -30 -14 -54 -31 -38 -27 -43 -35 -34 -51 6 -11 17 -22 26 -25 8 -3 65
-39 125 -79 61 -41 114 -74 118 -74 14 0 42 -39 35 -50 -8 -13 -800 -609 -819
-616 -12 -5 -33 8 -176 108 -185 129 -204 140 -216 132 -7 -5 -70 -49 -141
-97 -70 -49 -168 -117 -218 -153 -49 -35 -104 -72 -122 -81 -37 -19 -20 -27
-223 112 -72 50 -139 95 -148 100 -9 6 -33 22 -53 38 -20 15 -42 27 -47 27 -6
0 -14 4 -17 10 -8 12 12 50 26 50 6 0 28 14 49 30 21 17 41 30 45 30 4 0 24
12 44 28 20 15 44 32 53 37 9 6 49 32 90 60 40 27 81 54 90 60 9 5 50 33 90
60 40 28 78 52 83 55 6 3 63 41 128 85 65 44 126 85 135 90 9 6 90 60 180 120
90 61 171 115 179 120 8 6 164 110 347 232 182 121 337 221 345 222 7 1 30
-11 50 -26z"/>
<path d="M6220 3725 c-7 -8 -17 -15 -22 -15 -5 0 -35 -20 -66 -44 -31 -23 -88
-65 -127 -91 -105 -72 -200 -138 -300 -210 -106 -75 -199 -141 -311 -217 -92
-64 -73 -67 -217 31 -54 36 -106 71 -115 76 -9 6 -34 23 -55 39 -43 32 -79 36
-106 12 -9 -9 -21 -16 -25 -16 -5 0 -25 -13 -46 -30 -21 -16 -41 -30 -45 -30
-4 0 -24 -13 -45 -30 -21 -16 -41 -30 -45 -30 -4 0 -24 -12 -44 -27 -20 -16
-44 -32 -53 -38 -9 -5 -58 -38 -109 -72 -51 -35 -97 -63 -103 -63 -6 1 -41 22
-78 48 -140 98 -309 215 -394 274 -40 27 -79 36 -86 21 -3 -8 -64 -53 -71 -53
-3 0 -55 -34 -117 -75 -62 -41 -115 -75 -118 -75 -3 0 -13 -7 -23 -16 -35 -32
-51 -24 -266 132 -45 33 -129 93 -187 134 -221 158 -324 231 -403 290 -95 69
-118 73 -173 30 -21 -16 -40 -30 -43 -30 -3 0 -35 -20 -71 -45 -37 -25 -68
-45 -70 -45 -2 0 -54 -34 -116 -75 -62 -41 -113 -75 -115 -75 -1 0 -73 -47
-160 -105 -86 -58 -159 -105 -160 -105 -2 0 -53 -34 -114 -75 -62 -41 -113
-75 -115 -75 -2 0 -54 -34 -116 -75 -62 -41 -113 -75 -115 -75 -2 0 -53 -33
-114 -74 -61 -41 -114 -76 -118 -78 -5 -1 -47 -29 -96 -60 -48 -32 -126 -84
-175 -115 -48 -32 -91 -60 -97 -63 -51 -26 -205 -136 -205 -146 0 -12 167 -14
1020 -14 l1021 0 -12 -21 c-6 -12 -20 -24 -30 -26 -10 -3 -19 -9 -19 -14 0 -5
-10 -14 -22 -19 -25 -11 -32 -15 -126 -77 -35 -24 -66 -43 -69 -43 -3 0 -22
-13 -43 -30 -21 -16 -40 -30 -43 -30 -3 0 -34 -19 -69 -43 -35 -24 -71 -46
-81 -50 -10 -4 -15 -11 -12 -17 8 -13 4701 -14 4710 -1 3 6 -4 15 -16 21 -11
7 -30 20 -42 30 -12 10 -43 34 -69 52 -26 18 -118 87 -205 154 -87 66 -166
123 -175 127 -10 3 -18 16 -18 27 0 20 3 20 808 23 444 1 917 2 1051 2 173 0
245 3 248 11 3 10 -64 60 -112 84 -12 6 -69 43 -185 119 -47 30 -93 60 -102
66 -9 5 -49 30 -88 55 -39 25 -79 50 -88 55 -30 18 -226 146 -254 166 -15 10
-30 19 -32 19 -3 0 -35 20 -72 45 -36 25 -67 45 -69 45 -1 0 -53 34 -115 75
-62 41 -114 75 -115 75 -2 0 -33 20 -69 45 -37 25 -68 45 -71 45 -3 0 -34 20
-71 45 -36 25 -67 45 -69 45 -1 0 -53 34 -115 75 -62 41 -114 75 -116 75 -2 0
-33 20 -70 45 -36 25 -67 45 -70 45 -2 0 -33 20 -70 45 -71 49 -85 53 -104 30z
m108 -102 c29 -21 97 -69 152 -108 55 -38 146 -104 204 -145 57 -41 152 -109
210 -150 58 -41 144 -103 190 -137 47 -35 88 -63 91 -63 4 0 13 -6 20 -12 8
-7 46 -35 85 -63 39 -27 131 -93 203 -146 73 -52 169 -122 215 -154 45 -32 82
-62 82 -67 0 -4 -420 -8 -934 -8 -514 0 -937 -4 -940 -8 -3 -5 76 -69 175
-142 98 -74 179 -138 179 -142 0 -5 6 -8 14 -8 8 0 16 -7 20 -15 3 -8 10 -15
16 -15 30 0 92 -70 63 -70 -199 -5 -4023 -6 -4023 -1 1 14 18 31 69 65 29 20
55 36 58 36 3 0 22 13 43 30 21 17 41 30 45 30 4 0 24 13 45 30 21 17 41 30
45 30 4 0 24 14 45 30 21 17 41 30 44 30 14 0 65 44 60 52 -3 4 -435 8 -960 8
-841 0 -954 2 -954 15 0 8 4 15 9 15 6 0 80 47 165 104 86 57 159 106 164 108
4 2 115 75 247 163 132 88 244 162 250 164 5 2 26 17 46 32 20 16 40 29 44 29
4 0 24 12 44 28 20 15 44 32 53 37 9 6 49 33 90 60 40 28 78 52 83 54 6 2 26
17 46 32 20 16 40 29 44 29 4 0 24 14 45 30 21 17 41 30 45 30 4 0 24 14 45
30 21 17 40 30 43 30 3 0 42 25 87 56 45 30 87 53 93 51 7 -3 72 -49 145 -104
73 -54 180 -132 238 -173 58 -41 156 -111 217 -155 220 -159 252 -181 271
-188 13 -5 34 3 70 26 28 19 92 60 141 93 50 32 94 61 99 63 4 2 37 23 71 46
l63 44 74 -50 c40 -27 111 -77 158 -110 47 -33 103 -72 125 -86 22 -15 69 -48
104 -75 35 -26 71 -48 81 -48 9 0 142 83 295 185 l279 185 80 -55 c45 -30 121
-81 170 -115 49 -33 93 -60 97 -60 4 0 206 133 450 295 243 162 444 295 447
295 2 0 15 9 29 20 14 11 29 20 33 20 3 0 30 -17 58 -37z"/>
</g>
</svg>
